<mxfile host="app.diagrams.net" modified="2025-04-24T16:39:25.629Z" agent="Mozilla/5.0 (Macintosh; Intel Mac OS X 10_15_7) AppleWebKit/537.36 (KHTML, like Gecko) Chrome/135.0.0.0 Safari/537.36" version="24.6.4" etag="-FMYFbCxSx6sMy80PGW_" type="github">
  <diagram name="Page-1" id="0u0XgNxk-6Cg_h1qGpUM">
    <mxGraphModel>
      <root>
        <mxCell id="0" />
        <mxCell id="1" parent="0" />
      </root>
    </mxGraphModel>
  </diagram>
</mxfile>
